<?xml version="1.0" encoding="UTF-8"?>
<svg version="1.1" xmlns="http://www.w3.org/2000/svg" width="345" height="242">
<path d="M0 0 C2.33446586 0.02152258 4.66586767 0.00000161 7.00024414 -0.02539062 C20.89189104 -0.05232865 34.1235181 2.36059852 46.89282227 8.02148438 C47.90602539 8.44494141 47.90602539 8.44494141 48.93969727 8.87695312 C52.29768946 10.30961003 55.39537857 11.87721653 58.49829102 13.80273438 C61.48272373 15.72917957 61.48272373 15.72917957 63.99829102 15.39648438 C64.96702148 14.96335937 64.96702148 14.96335937 65.95532227 14.52148438 C66.71071289 14.21339844 67.46610352 13.9053125 68.24438477 13.58789062 C69.07711914 13.23597656 69.90985352 12.8840625 70.76782227 12.52148438 C88.07262143 6.47165353 103.49575973 5.18103604 121.76782227 5.52148438 C122.79133789 5.53824219 123.81485352 5.555 124.86938477 5.57226562 C139.86887789 6.38493166 153.83169059 12.29257798 166.76782227 19.52148438 C167.7255957 20.05 168.68336914 20.57851563 169.67016602 21.12304688 C175.34340234 24.3923695 180.97745542 28.03196182 185.76782227 32.52148438 C185.76782227 33.18148437 185.76782227 33.84148438 185.76782227 34.52148438 C186.42782227 34.52148438 187.08782227 34.52148438 187.76782227 34.52148438 C187.76782227 35.18148437 187.76782227 35.84148438 187.76782227 36.52148438 C188.32985352 36.74191406 188.89188477 36.96234375 189.47094727 37.18945312 C198.37716731 42.35445489 204.85712878 54.85620237 209.76782227 63.52148438 C210.47551758 64.74931641 210.47551758 64.74931641 211.19750977 66.00195312 C216.5199871 75.87002446 219.891001 87.50061531 221.76782227 98.52148438 C221.87868164 99.16214844 221.98954102 99.8028125 222.10375977 100.46289062 C223.82771874 112.74027413 223.19653358 125.40828667 220.76782227 137.52148438 C220.45844727 139.15730469 220.45844727 139.15730469 220.14282227 140.82617188 C218.59916215 148.28134857 216.17590357 154.73420382 212.76782227 161.52148438 C212.29086914 162.52308594 211.81391602 163.5246875 211.32250977 164.55664062 C206.67101604 174.18839859 201.03454281 183.59926069 193.76782227 191.52148438 C193.10782227 191.52148438 192.44782227 191.52148438 191.76782227 191.52148438 C191.76782227 192.18148437 191.76782227 192.84148437 191.76782227 193.52148438 C191.10782227 193.52148438 190.44782227 193.52148438 189.76782227 193.52148438 C189.76782227 194.18148437 189.76782227 194.84148437 189.76782227 195.52148438 C188.03390275 197.12782453 186.22973127 198.65901307 184.39282227 200.14648438 C183.39508789 200.96375 182.39735352 201.78101563 181.36938477 202.62304688 C178.76782227 204.52148438 178.76782227 204.52148438 176.76782227 204.52148438 C176.76782227 205.18148437 176.76782227 205.84148437 176.76782227 206.52148438 C175.14032419 207.58404157 173.46410843 208.57259501 171.76782227 209.52148438 C170.93766602 210.05386719 170.10750977 210.58625 169.25219727 211.13476562 C144.60143656 226.45345264 113.28885966 230.26834893 85.13647461 224.15185547 C80.16915319 222.82989877 75.41200521 220.87486412 70.72827148 218.77124023 C66.3214238 216.84177491 63.5545381 216.02563568 58.76782227 217.52148438 C56.12633913 218.76281786 56.12633913 218.76281786 53.58032227 220.33398438 C48.10149746 223.41123316 42.78528436 225.71324452 36.76782227 227.52148438 C35.58961914 227.88371094 34.41141602 228.2459375 33.19750977 228.61914062 C22.92822653 231.45950045 12.61253915 232.04856796 2.01782227 232.39648438 C1.30896881 232.42221527 0.60011536 232.44794617 -0.13021851 232.47445679 C-2.17975183 232.5436615 -4.22883247 232.59489825 -6.27905273 232.63867188 C-8.07101074 232.67903564 -8.07101074 232.67903564 -9.89916992 232.72021484 C-13.36108323 232.51379839 -16.0011053 231.74083734 -19.23217773 230.52148438 C-21.5830978 229.90480546 -23.93753208 229.30142205 -26.29467773 228.70898438 C-44.0778525 224.05378338 -59.09073645 216.13235196 -73.23217773 204.52148438 C-74.08811523 203.82023438 -74.94405273 203.11898437 -75.82592773 202.39648438 C-79.82936207 199.01330043 -79.82936207 199.01330043 -81.23217773 197.52148438 C-81.23217773 196.86148438 -81.23217773 196.20148438 -81.23217773 195.52148438 C-81.89217773 195.52148438 -82.55217773 195.52148438 -83.23217773 195.52148438 C-94.67224061 183.17961474 -104.59200807 166.76207822 -109.23217773 150.52148438 C-109.60342773 149.26335937 -109.97467773 148.00523437 -110.35717773 146.70898438 C-116.98685835 121.78750233 -116.07209632 89.33526829 -103.23217773 66.52148438 C-102.75780273 65.61785156 -102.28342773 64.71421875 -101.79467773 63.78320312 C-100.31759889 61.00214061 -98.78897565 58.25862529 -97.23217773 55.52148438 C-96.68948242 54.55984375 -96.14678711 53.59820312 -95.58764648 52.60742188 C-95.0578418 51.6921875 -94.52803711 50.77695312 -93.98217773 49.83398438 C-93.50264648 49.00511719 -93.02311523 48.17625 -92.52905273 47.32226562 C-92.10108398 46.72800781 -91.67311523 46.13375 -91.23217773 45.52148438 C-90.57217773 45.52148438 -89.91217773 45.52148438 -89.23217773 45.52148438 C-88.98467773 44.96460938 -88.73717773 44.40773437 -88.48217773 43.83398438 C-87.00292955 41.09737524 -85.29750334 38.84497568 -83.23217773 36.52148438 C-82.57217773 36.52148438 -81.91217773 36.52148438 -81.23217773 36.52148438 C-80.84932617 35.64169922 -80.84932617 35.64169922 -80.45874023 34.74414062 C-74.26672231 23.52357311 -57.28343257 14.64375812 -45.98217773 9.33398438 C-45.05284424 8.89687134 -45.05284424 8.89687134 -44.10473633 8.45092773 C-40.83804417 6.99670241 -38.89148337 6.52148438 -35.23217773 6.52148438 C-34.90217773 5.86148437 -34.57217773 5.20148437 -34.23217773 4.52148438 C-22.96308653 1.01427966 -11.75010217 -0.12816053 0 0 Z M100.76782227 53.52148438 C102.01395804 56.01922892 103.27113383 58.5103305 104.53735352 60.99804688 C109.63753688 71.24959019 113.17238069 81.37912877 115.76782227 92.52148438 C116.0140332 93.50890625 116.26024414 94.49632812 116.51391602 95.51367188 C119.39248422 109.21168609 119.2934973 125.97546977 115.76782227 139.52148438 C115.57945801 140.24899902 115.39109375 140.97651367 115.19702148 141.72607422 C112.20204782 153.04415822 108.42035185 163.26534823 102.76782227 173.52148438 C102.09416576 174.85129982 101.42417335 176.18304294 100.76782227 177.52148438 C116.39341245 180.81108231 132.98683527 177.43361868 146.36938477 168.85351562 C148.61183284 167.16975307 150.6972606 165.41182307 152.76782227 163.52148438 C153.81389648 162.57789063 153.81389648 162.57789063 154.88110352 161.61523438 C167.06879945 150.04725179 173.82441789 134.67303912 174.76782227 117.94726562 C174.76782227 99.66939328 168.36524853 83.70483744 155.76782227 70.52148438 C155.10782227 70.52148438 154.44782227 70.52148438 153.76782227 70.52148438 C153.76782227 69.86148438 153.76782227 69.20148438 153.76782227 68.52148438 C147.5651329 63.17990589 140.35517366 59.47155975 132.76782227 56.52148438 C132.13448975 56.25746826 131.50115723 55.99345215 130.84863281 55.72143555 C124.42417629 53.26385471 118.5252121 53.16617636 111.70532227 53.33398438 C110.64893555 53.34751953 109.59254883 53.36105469 108.50415039 53.375 C105.92482418 53.41001348 103.34660733 53.45911763 100.76782227 53.52148438 Z " fill="#AFC8FE" transform="translate(120.232177734375,7.478515625)"/>
<path d="M0 0 C2.33446586 0.02152258 4.66586767 0.00000161 7.00024414 -0.02539062 C20.89189104 -0.05232865 34.1235181 2.36059852 46.89282227 8.02148438 C47.90602539 8.44494141 47.90602539 8.44494141 48.93969727 8.87695312 C52.27903289 10.30165037 55.4015321 11.86291879 58.51000977 13.74023438 C61.73393463 15.84130865 61.73393463 15.84130865 65.76782227 15.52148438 C65.76782227 16.18148438 65.76782227 16.84148438 65.76782227 17.52148438 C64.91704102 17.76640625 64.06625977 18.01132812 63.18969727 18.26367188 C59.46928307 19.63122139 56.31914529 21.4987271 53.01782227 23.64648438 C47.02431015 27.52148438 47.02431015 27.52148438 44.76782227 27.52148438 C44.76782227 28.18148437 44.76782227 28.84148438 44.76782227 29.52148438 C41.3062838 32.52148438 41.3062838 32.52148438 38.76782227 32.52148438 C38.43782227 33.51148438 38.10782227 34.50148437 37.76782227 35.52148438 C36.33213338 36.69841538 34.89442113 37.87301971 33.44360352 39.03125 C30.41257176 41.72667801 28.14257254 45.00231271 25.76782227 48.27148438 C25.24599365 48.98087158 24.72416504 49.69025879 24.18652344 50.42114258 C22.70329409 52.44735016 21.23301048 54.48220735 19.76782227 56.52148438 C19.08333008 57.46894531 18.39883789 58.41640625 17.69360352 59.39257812 C15.05451781 63.18187068 13.49436735 65.89874148 12.76782227 70.52148438 C12.10782227 70.52148438 11.44782227 70.52148438 10.76782227 70.52148438 C8.8603377 76.49826936 7.29653203 82.40830051 6.19750977 88.58789062 C5.76782227 90.52148438 5.76782227 90.52148438 4.76782227 91.52148438 C0.31831429 114.93823801 1.95000176 141.01199871 12.76782227 162.52148438 C12.76782227 163.51148438 12.76782227 164.50148437 12.76782227 165.52148438 C13.42782227 165.52148438 14.08782227 165.52148438 14.76782227 165.52148438 C15.16614258 166.35292969 15.56446289 167.184375 15.97485352 168.04101562 C16.5046582 169.12769531 17.03446289 170.214375 17.58032227 171.33398438 C18.10239258 172.41292969 18.62446289 173.491875 19.16235352 174.60351562 C20.56139982 177.14630781 21.67541372 178.60251076 23.76782227 180.52148438 C25.08903116 182.31707392 26.33430607 184.15236701 27.58422852 185.99804688 C28.7088817 187.67198745 28.7088817 187.67198745 30.76782227 188.52148438 C31.09782227 189.51148438 31.42782227 190.50148437 31.76782227 191.52148438 C32.42782227 191.85148438 33.08782227 192.18148437 33.76782227 192.52148438 C33.76782227 193.18148437 33.76782227 193.84148437 33.76782227 194.52148438 C34.34661133 194.77671875 34.92540039 195.03195313 35.52172852 195.29492188 C37.99474693 196.64540497 39.67823872 198.19332518 41.70532227 200.14648438 C49.59367561 207.26809497 58.10229619 213.07531135 68.76782227 214.52148438 C68.76782227 215.51148438 68.76782227 216.50148437 68.76782227 217.52148438 C67.71594727 217.21210938 66.66407227 216.90273437 65.58032227 216.58398438 C59.84650787 215.83433373 55.85296814 218.90301925 51.04125977 221.67773438 C46.4197886 224.28075871 41.84398481 226.01935464 36.76782227 227.52148438 C35.59219727 227.88242188 34.41657227 228.24335938 33.20532227 228.61523438 C22.93399211 231.46008538 12.61551746 232.04847015 2.01782227 232.39648438 C1.30896881 232.42221527 0.60011536 232.44794617 -0.13021851 232.47445679 C-2.17975183 232.5436615 -4.22883247 232.59489825 -6.27905273 232.63867188 C-8.07101074 232.67903564 -8.07101074 232.67903564 -9.89916992 232.72021484 C-13.36108323 232.51379839 -16.0011053 231.74083734 -19.23217773 230.52148438 C-21.5830978 229.90480546 -23.93753208 229.30142205 -26.29467773 228.70898438 C-44.0778525 224.05378338 -59.09073645 216.13235196 -73.23217773 204.52148438 C-74.08811523 203.82023438 -74.94405273 203.11898437 -75.82592773 202.39648438 C-79.82936207 199.01330043 -79.82936207 199.01330043 -81.23217773 197.52148438 C-81.23217773 196.86148438 -81.23217773 196.20148438 -81.23217773 195.52148438 C-81.89217773 195.52148438 -82.55217773 195.52148438 -83.23217773 195.52148438 C-94.67224061 183.17961474 -104.59200807 166.76207822 -109.23217773 150.52148438 C-109.60342773 149.26335937 -109.97467773 148.00523437 -110.35717773 146.70898438 C-116.98685835 121.78750233 -116.07209632 89.33526829 -103.23217773 66.52148438 C-102.75780273 65.61785156 -102.28342773 64.71421875 -101.79467773 63.78320312 C-100.31759889 61.00214061 -98.78897565 58.25862529 -97.23217773 55.52148438 C-96.68948242 54.55984375 -96.14678711 53.59820312 -95.58764648 52.60742188 C-95.0578418 51.6921875 -94.52803711 50.77695312 -93.98217773 49.83398438 C-93.50264648 49.00511719 -93.02311523 48.17625 -92.52905273 47.32226562 C-92.10108398 46.72800781 -91.67311523 46.13375 -91.23217773 45.52148438 C-90.57217773 45.52148438 -89.91217773 45.52148438 -89.23217773 45.52148438 C-88.98467773 44.96460938 -88.73717773 44.40773437 -88.48217773 43.83398438 C-87.00292955 41.09737524 -85.29750334 38.84497568 -83.23217773 36.52148438 C-82.57217773 36.52148438 -81.91217773 36.52148438 -81.23217773 36.52148438 C-80.84932617 35.64169922 -80.84932617 35.64169922 -80.45874023 34.74414062 C-74.26672231 23.52357311 -57.28343257 14.64375812 -45.98217773 9.33398438 C-45.05284424 8.89687134 -45.05284424 8.89687134 -44.10473633 8.45092773 C-40.83804417 6.99670241 -38.89148337 6.52148438 -35.23217773 6.52148438 C-34.90217773 5.86148437 -34.57217773 5.20148437 -34.23217773 4.52148438 C-22.96308653 1.01427966 -11.75010217 -0.12816053 0 0 Z " fill="#BBDDFE" transform="translate(120.232177734375,7.478515625)"/>
<path d="M0 0 C1.37727419 2.31382064 2.69793537 4.64333916 4 7 C4.54398438 7.97324219 5.08796875 8.94648437 5.6484375 9.94921875 C10.62539085 19.30545638 13.57696798 28.70461703 16 39 C16.2475 39.99128906 16.495 40.98257813 16.75 42.00390625 C19.62111887 55.70153585 19.52528892 72.4554689 16 86 C15.81163574 86.72751465 15.62327148 87.4550293 15.42919922 88.20458984 C12.14998757 100.59681662 8.16087224 112.25869164 1 123 C2.65 123.33 4.3 123.66 6 124 C6 124.33 6 124.66 6 125 C-6.31346237 126.14543836 -18.06841611 119.62105593 -28 113 C-28 112.34 -28 111.68 -28 111 C-28.556875 110.773125 -29.11375 110.54625 -29.6875 110.3125 C-40.51925731 104.16474585 -47.59864864 89.63994293 -51.18359375 78.234375 C-55.31084983 60.15968979 -51.39316294 42.55426982 -42 27 C-39.59407542 23.27643823 -37.36671804 19.9178223 -34 17 C-33.34 17 -32.68 17 -32 17 C-31.78859375 16.42121094 -31.5771875 15.84242187 -31.359375 15.24609375 C-26.46268933 7.15530565 -9.19366802 0 0 0 Z " fill="#BBDDFE" transform="translate(221,61)"/>
<path d="M0 0 C0.66 0.33 1.32 0.66 2 1 C0.217918 2.87587579 -1.55700905 4.42438785 -3.625 6 C-6.23949912 7.84855592 -6.23949912 7.84855592 -7 11 C-8.14194214 12.17552868 -9.28950726 13.34626864 -10.46875 14.484375 C-14.27373515 18.25053377 -18.03225618 22.06451235 -20.4375 26.875 C-22.4825661 30.9651322 -25.30425806 34.15995178 -28.2578125 37.6328125 C-29.90565917 39.87181493 -30.58774215 41.28909232 -31 44 C-31.66 44 -32.32 44 -33 44 C-31.67712278 39.5838278 -29.9320294 35.88671567 -27.5625 31.9375 C-26.66724609 30.43509766 -26.66724609 30.43509766 -25.75390625 28.90234375 C-25.17511719 27.94457031 -24.59632812 26.98679687 -24 26 C-23.47277344 25.05253906 -22.94554687 24.10507812 -22.40234375 23.12890625 C-21.93957031 22.42636719 -21.47679687 21.72382812 -21 21 C-20.34 21 -19.68 21 -19 21 C-18.7525 20.443125 -18.505 19.88625 -18.25 19.3125 C-16.77075182 16.57589087 -15.06532561 14.32349131 -13 12 C-12.34 12 -11.68 12 -11 12 C-10.76539062 11.42765625 -10.53078125 10.8553125 -10.2890625 10.265625 C-8.70593415 7.48315699 -6.8008475 5.82929786 -4.375 3.75 C-3.55773437 3.04359375 -2.74046875 2.3371875 -1.8984375 1.609375 C-1.27195312 1.07828125 -0.64546875 0.5471875 0 0 Z " fill="#D3E7F9" transform="translate(50,32)"/>
<path d="M0 0 C0.99 0 1.98 0 3 0 C3 0.66 3 1.32 3 2 C2.34 2 1.68 2 1 2 C1 2.66 1 3.32 1 4 C0.34 4 -0.32 4 -1 4 C-1 4.66 -1 5.32 -1 6 C-2.73391951 7.60634015 -4.538091 9.1375287 -6.375 10.625 C-7.87160156 11.85089844 -7.87160156 11.85089844 -9.3984375 13.1015625 C-12 15 -12 15 -14 15 C-14 15.66 -14 16.32 -14 17 C-15.62494247 18.06646133 -17.30269416 19.05293576 -19 20 C-19.93457031 20.57878906 -20.86914062 21.15757812 -21.83203125 21.75390625 C-27.5248403 25.20838933 -32.41789733 27.86078992 -39 29 C-38.625 27.0625 -38.625 27.0625 -38 25 C-35.29120665 23.64560332 -32.99066732 23.93498549 -30 24 C-30 23.34 -30 22.68 -30 22 C-28.9275 21.5875 -27.855 21.175 -26.75 20.75 C-23.4429795 19.34601343 -21.46526065 17.63527862 -19 15 C-16.88406889 13.74366591 -15.22552318 13.04510464 -12.8125 12.5625 C-12.214375 12.376875 -11.61625 12.19125 -11 12 C-10.67 11.01 -10.34 10.02 -10 9 C-9.34 9 -8.68 9 -8 9 C-8 8.34 -8 7.68 -8 7 C-3.64705882 3 -3.64705882 3 0 3 C0 2.01 0 1.02 0 0 Z " fill="#CAD6F6" transform="translate(311,197)"/>
<path d="M0 0 C7.74956829 14.27054649 2.5237967 37.1497139 -1 52 C-1.33 52 -1.66 52 -2 52 C-2.05425226 49.60385874 -2.09379027 47.20896147 -2.125 44.8125 C-2.14175781 44.13896484 -2.15851563 43.46542969 -2.17578125 42.77148438 C-2.21641579 38.60644362 -1.52852947 35.80690359 0 32 C0.41232304 28.98718048 0.55271493 25.97384003 0.6875 22.9375 C0.73455078 22.13505859 0.78160156 21.33261719 0.83007812 20.50585938 C1.02137083 16.72704455 0.98264877 13.66915208 0 10 C-0.06624507 8.25113019 -0.08552595 6.49997252 -0.0625 4.75 C-0.05347656 3.85796875 -0.04445313 2.9659375 -0.03515625 2.046875 C-0.02355469 1.37140625 -0.01195312 0.6959375 0 0 Z " fill="#D2DDF8" transform="translate(340,102)"/>
<path d="M0 0 C0.33 0 0.66 0 1 0 C1.36804643 3.75187628 1.30318062 5.53697252 -0.79296875 8.73828125 C-1.97826172 10.01251953 -1.97826172 10.01251953 -3.1875 11.3125 C-3.96480469 12.17488281 -4.74210937 13.03726563 -5.54296875 13.92578125 C-8.14536901 16.12272011 -9.65545911 16.68514979 -13 17 C-13 17.66 -13 18.32 -13 19 C-14.96466413 20.06775224 -16.96855359 21.06553465 -19 22 C-19.66 21.67 -20.32 21.34 -21 21 C-20.43152344 20.57589844 -19.86304688 20.15179688 -19.27734375 19.71484375 C-11.57727263 13.86587487 -5.50681441 7.93629136 0 0 Z " fill="#CAD7F7" transform="translate(285,156)"/>
<path d="M0 0 C3.625 1.375 3.625 1.375 6 3 C6.495 4.485 6.495 4.485 7 6 C5.22888156 5.52188823 3.45811517 5.0424722 1.6875 4.5625 C0.70136719 4.29566406 -0.28476563 4.02882813 -1.30078125 3.75390625 C-3.21517526 3.21920575 -5.11433615 2.62855462 -7 2 C-8.77166975 1.85164052 -10.54767612 1.75229982 -12.32421875 1.68359375 C-13.35224609 1.64169922 -14.38027344 1.59980469 -15.43945312 1.55664062 C-17.04723633 1.49766602 -17.04723633 1.49766602 -18.6875 1.4375 C-19.77095703 1.39431641 -20.85441406 1.35113281 -21.97070312 1.30664062 C-24.64700791 1.20053162 -27.32340526 1.09847639 -30 1 C-22.06352215 -3.35853096 -8.72969836 -1.54573074 0 0 Z " fill="#C8D6F6" transform="translate(251,60)"/>
<path d="M0 0 C0.66 0 1.32 0 2 0 C4.81002114 6.36938125 5.181402 12.52085291 5.1875 19.375 C5.19974609 20.09171875 5.21199219 20.8084375 5.22460938 21.546875 C5.23849312 26.67460427 4.40821991 31.06844728 3 36 C1.86665419 32.59996256 2.14831895 30.72329822 2.5625 27.1875 C3.20811965 19.88137385 2.28424369 13.18648693 1 6 C0.66555231 4.00018605 0.33186553 2.00024408 0 0 Z " fill="#D5E0F8" transform="translate(291,102)"/>
<path d="M0 0 C-3.23523481 1.74204951 -6.51143778 2.8595085 -10 4 C-11.33344955 4.54138052 -12.6667776 5.08306036 -14 5.625 C-17.43619083 6.9400038 -20.29356254 7.27798281 -24 7 C-21.31015958 4.31015958 -18.22586358 3.57422882 -14.6875 2.4375 C-14.02298828 2.21642578 -13.35847656 1.99535156 -12.67382812 1.76757812 C-2.87867977 -1.43933988 -2.87867977 -1.43933988 0 0 Z " fill="#D2DDF8" transform="translate(210,16)"/>
<path d="M0 0 C1.47968324 0.14049518 2.95874516 0.28754826 4.4375 0.4375 C5.67306641 0.55931641 5.67306641 0.55931641 6.93359375 0.68359375 C9 1 9 1 10 2 C12.21586069 2.49441111 14.4421617 2.89857485 16.67578125 3.3046875 C19.29128369 4.08714033 20.92042384 5.25829548 23 7 C14.61163812 6.7917111 7.6731095 4.25926751 0 1 C0 0.67 0 0.34 0 0 Z " fill="#CBD7F5" transform="translate(190,225)"/>
<path d="M0 0 C-7.44135019 3.5515535 -15.68157442 6.31993945 -24 6 C-21.31400569 3.31400569 -18.83819053 2.94287341 -15.1875 1.9375 C-13.96417969 1.59589844 -12.74085938 1.25429687 -11.48046875 0.90234375 C-3.5 -1.16666667 -3.5 -1.16666667 0 0 Z " fill="#D4E7F9" transform="translate(164,232)"/>
<path d="M0 0 C2.475 0.495 2.475 0.495 5 1 C5.103125 1.61875 5.20625 2.2375 5.3125 2.875 C5.87525373 5.36526484 5.87525373 5.36526484 9 7 C9 7.99 9 8.98 9 10 C10.32 10.33 11.64 10.66 13 11 C13.33 12.32 13.66 13.64 14 15 C13.01 15 12.02 15 11 15 C9.0625 12.98828125 9.0625 12.98828125 7 10.3125 C6.319375 9.44238281 5.63875 8.57226562 4.9375 7.67578125 C3.13482537 5.18620036 1.53445648 2.66132296 0 0 Z " fill="#D1E6F7" transform="translate(26,188)"/>
<path d="M0 0 C1.26438438 3.79315313 0.52202359 4.6056875 -1.1875 8.125 C-1.64898437 9.09308594 -2.11046875 10.06117188 -2.5859375 11.05859375 C-3.05257813 12.02925781 -3.51921875 12.99992188 -4 14 C-4.77762263 15.72612411 -5.54920775 17.45499132 -6.3125 19.1875 C-6.63863281 19.92355469 -6.96476562 20.65960938 -7.30078125 21.41796875 C-7.53152344 21.94003906 -7.76226562 22.46210938 -8 23 C-9.12377697 19.69564916 -8.89554742 17.9493138 -7.5625 14.75 C-7.27503906 14.04359375 -6.98757813 13.3371875 -6.69140625 12.609375 C-6.46324219 12.07828125 -6.23507812 11.5471875 -6 11 C-5.34 11 -4.68 11 -4 11 C-3.34 8.03 -2.68 5.06 -2 2 C-1.34 2 -0.68 2 0 2 C0 1.34 0 0.68 0 0 Z " fill="#D3DFF8" transform="translate(337,155)"/>
<path d="M0 0 C3.86478185 4.39785521 7 8.97281595 7 15 C6.34 15 5.68 15 5 15 C4.34 12.69 3.68 10.38 3 8 C2.34 8 1.68 8 1 8 C-0.35439668 5.29120665 -0.06501451 2.99066732 0 0 Z " fill="#CEDCF8" transform="translate(328,69)"/>
<path d="M0 0 C1.84036681 2.76055022 2.68344114 4.74598117 3.625 7.875 C3.88539063 8.71804687 4.14578125 9.56109375 4.4140625 10.4296875 C5.00963022 13.04224458 5.10525251 15.33041371 5 18 C4.33333333 16.66666667 3.66666667 15.33333333 3 14 C2.195625 12.63875 2.195625 12.63875 1.375 11.25 C-0.35378593 7.1637787 -0.22761701 4.40059548 0 0 Z " fill="#D1DCF6" transform="translate(335,84)"/>
<path d="M0 0 C4.66132863 3.57729872 7.73911534 7.10867301 11 12 C10.01 12.495 10.01 12.495 9 13 C9 12.34 9 11.68 9 11 C7.68 10.34 6.36 9.68 5 9 C5 8.01 5 7.02 5 6 C4.01 6.33 3.02 6.66 2 7 C1.34 4.69 0.68 2.38 0 0 Z " fill="#D1DEF8" transform="translate(309,44)"/>
<path d="M0 0 C0.66 1.32 1.32 2.64 2 4 C2.66 4 3.32 4 4 4 C4.53394179 5.4117783 5.05165104 6.82970244 5.5625 8.25 C5.85253906 9.03890625 6.14257812 9.8278125 6.44140625 10.640625 C7.04522837 13.19103452 6.8473932 14.55322229 6 17 C4.9932996 14.73192796 3.99448234 12.46092246 3 10.1875 C2.71382812 9.54490234 2.42765625 8.90230469 2.1328125 8.24023438 C0.86288959 5.32243531 0 3.21734286 0 0 Z " fill="#D7E9FA" transform="translate(12,158)"/>
<path d="M0 0 C0.99 0 1.98 0 3 0 C3.33 1.32 3.66 2.64 4 4 C4.66 4 5.32 4 6 4 C6 4.66 6 5.32 6 6 C7.32 6.33 8.64 6.66 10 7 C10.33 8.32 10.66 9.64 11 11 C10.01 11.495 10.01 11.495 9 12 C7.82739389 10.71372289 6.6620717 9.42080217 5.5 8.125 C4.8503125 7.40570313 4.200625 6.68640625 3.53125 5.9453125 C2 4 2 4 2 2 C1.34 2 0.68 2 0 2 C0 1.34 0 0.68 0 0 Z " fill="#CFDDF8" transform="translate(274,76)"/>
<path d="M0 0 C1.77433812 0.93084971 3.54435149 1.86994613 5.3125 2.8125 C6.29863281 3.33457031 7.28476562 3.85664063 8.30078125 4.39453125 C10.61665068 5.7719876 12.23611001 6.99530591 14 9 C12.68428397 8.7452486 11.37239624 8.47065859 10.0625 8.1875 C8.96615234 7.96126953 8.96615234 7.96126953 7.84765625 7.73046875 C7.23792969 7.48941406 6.62820313 7.24835937 6 7 C5.67 6.01 5.34 5.02 5 4 C4.34 3.835 3.68 3.67 3 3.5 C2.34 3.335 1.68 3.17 1 3 C0.67 2.01 0.34 1.02 0 0 Z " fill="#D4DEF8" transform="translate(283,25)"/>
<path d="M0 0 C0.33 0.99 0.66 1.98 1 3 C-0.43359375 5.04296875 -0.43359375 5.04296875 -2.4375 7.1875 C-3.09621094 7.90292969 -3.75492187 8.61835938 -4.43359375 9.35546875 C-4.95050781 9.89816406 -5.46742188 10.44085938 -6 11 C-6.33 9.68 -6.66 8.36 -7 7 C-6.01 6.34 -5.02 5.68 -4 5 C-3.67 4.01 -3.34 3.02 -3 2 C-2.01 2 -1.02 2 0 2 C0 1.34 0 0.68 0 0 Z " fill="#CDDBF8" transform="translate(324,182)"/>
<path d="M0 0 C0.66 0.33 1.32 0.66 2 1 C0.02 4.96 -1.96 8.92 -4 13 C-5.14271055 9.57186835 -4.82699932 8.69088901 -3.6875 5.375 C-3.42324219 4.57835937 -3.15898437 3.78171875 -2.88671875 2.9609375 C-2 1 -2 1 0 0 Z " fill="#D6E8F8" transform="translate(229,166)"/>
<path d="M0 0 C0.66 0.33 1.32 0.66 2 1 C-0.57784846 3.64752004 -2.91648098 5.94432065 -6 8 C-6.66 7.34 -7.32 6.68 -8 6 C-5.36 4.02 -2.72 2.04 0 0 Z " fill="#CAE3F9" transform="translate(60,25)"/>
<path d="M0 0 C0.33 0 0.66 0 1 0 C1.2295711 3.36704285 1.33943529 5.41370268 -0.375 8.375 C-0.91125 8.91125 -1.4475 9.4475 -2 10 C-2.66 10 -3.32 10 -4 10 C-2.99806563 6.20696275 -2.18975773 3.28463659 0 0 Z " fill="#C4D2F4" transform="translate(285,156)"/>
<path d="M0 0 C3.1414436 1.83250877 6.22602027 3.63698023 9 6 C9 6.66 9 7.32 9 8 C7.68 8 6.36 8 5 8 C5 7.01 5 6.02 5 5 C4.01 5 3.02 5 2 5 C2 4.01 2 3.02 2 2 C1.34 2 0.68 2 0 2 C0 1.34 0 0.68 0 0 Z " fill="#CFDFF7" transform="translate(297,34)"/>
<path d="M0 0 C4.7517398 0.43197635 6.92000054 1.32769295 10 5 C5.75354935 5 3.61475228 3.18249194 0 1 C0 0.67 0 0.34 0 0 Z " fill="#D5E8F9" transform="translate(59,220)"/>
<path d="M0 0 C0 0.66 0 1.32 0 2 C-5.324335 4.32086397 -9.43842552 3.91457003 -15 3 C-15 2.67 -15 2.34 -15 2 C-12.87528825 1.6648342 -10.75022095 1.33192171 -8.625 1 C-7.44164062 0.814375 -6.25828125 0.62875 -5.0390625 0.4375 C-2 0 -2 0 0 0 Z " fill="#D9E1F4" transform="translate(252,183)"/>
<path d="M0 0 C0.66 0.33 1.32 0.66 2 1 C-2.30769231 5.92307692 -2.30769231 5.92307692 -5.8125 6.3125 C-6.8953125 6.1578125 -6.8953125 6.1578125 -8 6 C-5.54080489 3.3651481 -3.42227589 1.25483449 0 0 Z " fill="#D5E9FA" transform="translate(70,19)"/>
<path d="M0 0 C0.66 0 1.32 0 2 0 C1.45660208 4.56454251 0.20536179 7.9728176 -2 12 C-3.12377697 8.69564916 -2.89554742 6.9493138 -1.5625 3.75 C-1.27503906 3.04359375 -0.98757813 2.3371875 -0.69140625 1.609375 C-0.46324219 1.07828125 -0.23507812 0.5471875 0 0 Z " fill="#CBD8F6" transform="translate(331,166)"/>
<path d="M0 0 C1.07310858 3.27185553 0.89263102 5.42947592 0.0625 8.75 C-0.13214844 9.54921875 -0.32679688 10.3484375 -0.52734375 11.171875 C-0.68332031 11.77515625 -0.83929688 12.3784375 -1 13 C-1.33 13 -1.66 13 -2 13 C-2.05416188 11.39620659 -2.09286638 9.79188594 -2.125 8.1875 C-2.14820313 7.29417969 -2.17140625 6.40085938 -2.1953125 5.48046875 C-2 3 -2 3 0 0 Z " fill="#D5E1F9" transform="translate(340,141)"/>
<path d="M0 0 C1.46067199 0.45082469 2.91848032 0.91093537 4.375 1.375 C5.18710937 1.63023438 5.99921875 1.88546875 6.8359375 2.1484375 C9 3 9 3 11 5 C10.01 5.33 9.02 5.66 8 6 C8 5.34 8 4.68 8 4 C5.69 3.67 3.38 3.34 1 3 C0.67 2.01 0.34 1.02 0 0 Z " fill="#D8E1F8" transform="translate(271,20)"/>
<path d="M0 0 C-3.68734758 2.45823172 -6.69699971 3.01242616 -11 4 C-11 3.34 -11 2.68 -11 2 C-7.36576791 -0.32590854 -4.22911669 -0.16265833 0 0 Z " fill="#CBDAF5" transform="translate(272,226)"/>
<path d="M0 0 C3.71599191 -0.20086443 4.77208445 -0.1519437 8 2 C8 2.66 8 3.32 8 4 C8.99 4.33 9.98 4.66 11 5 C10.01 5.495 10.01 5.495 9 6 C6.8359375 5.00390625 6.8359375 5.00390625 4.375 3.5625 C3.55773437 3.08941406 2.74046875 2.61632812 1.8984375 2.12890625 C1.27195312 1.75636719 0.64546875 1.38382812 0 1 C0 0.67 0 0.34 0 0 Z " fill="#D0DEF7" transform="translate(258,66)"/>
<path d="M0 0 C2.97 0.33 5.94 0.66 9 1 C9 1.33 9 1.66 9 2 C5.37 2.33 1.74 2.66 -2 3 C-1.34 2.01 -0.68 1.02 0 0 Z " fill="#CEDBF8" transform="translate(252,229)"/>
<path d="M0 0 C0.99 0.33 1.98 0.66 3 1 C1.71034824 2.37562854 0.37310707 3.70766393 -1 5 C-1.66 5 -2.32 5 -3 5 C-2.625 3.0625 -2.625 3.0625 -2 1 C-1.34 0.67 -0.68 0.34 0 0 Z " fill="#C1D2F6" transform="translate(275,221)"/>
<path d="M0 0 C0.99 0 1.98 0 3 0 C3 0.66 3 1.32 3 2 C2.34 2 1.68 2 1 2 C1 2.66 1 3.32 1 4 C0.34 4 -0.32 4 -1 4 C-1 4.66 -1 5.32 -1 6 C-1.99 6.33 -2.98 6.66 -4 7 C-3.67 5.68 -3.34 4.36 -3 3 C-2.01 3 -1.02 3 0 3 C0 2.01 0 1.02 0 0 Z " fill="#D1DDF8" transform="translate(311,197)"/>
<path d="M0 0 C0.99 0 1.98 0 3 0 C4.4783226 2.95664519 4.06032783 5.74229737 4 9 C2.00902154 6.01353231 1.05875074 3.40312738 0 0 Z " fill="#D3DDF6" transform="translate(287,93)"/>
<path d="M0 0 C4.42857143 5.14285714 4.42857143 5.14285714 5 9 C4.34 9 3.68 9 3 9 C3 8.01 3 7.02 3 6 C2.01 6 1.02 6 0 6 C0 4.02 0 2.04 0 0 Z " fill="#D1E4F9" transform="translate(224,68)"/>
<path d="M0 0 C2.97 0 5.94 0 9 0 C9 0.99 9 1.98 9 3 C4.545 2.01 4.545 2.01 0 1 C0 0.67 0 0.34 0 0 Z " fill="#CAD8FB" transform="translate(228,186)"/>
<path d="M0 0 C1 3 1 3 0.0625 5.1875 C-0.4634375 6.0846875 -0.4634375 6.0846875 -1 7 C-2.32 6.67 -3.64 6.34 -5 6 C-3.35 4.02 -1.7 2.04 0 0 Z " fill="#D3E0F8" transform="translate(281,161)"/>
<path d="" fill="#FFFFFF" transform="translate(0,0)"/>
<path d="" fill="#FFFFFF" transform="translate(0,0)"/>
<path d="" fill="#FFFFFF" transform="translate(0,0)"/>
<path d="" fill="#FFFFFF" transform="translate(0,0)"/>
<path d="" fill="#FFFFFF" transform="translate(0,0)"/>
<path d="" fill="#FFFFFF" transform="translate(0,0)"/>
<path d="" fill="#FFFFFF" transform="translate(0,0)"/>
</svg>
